<?xml version="1.0" encoding="UTF-8"?>
<svg id="Layer_1" data-name="Layer 1" xmlns="http://www.w3.org/2000/svg" viewBox="0 0 213.28 82.76">
  <defs>
    <style>
      .cls-1 {
        fill: #00878f;
      }

      .cls-2 {
        fill: #8c7965;
      }

      .cls-3 {
        fill: #e5ad24;
      }

      .cls-4 {
        fill: #e47128;
      }

      .cls-5 {
        fill: #62aeb2;
      }
    </style>
  </defs>
  <g>
    <path class="cls-1" d="M129.3,59.84l2.44-7.77h2.16l2.47,7.77h-2.04l-.43-1.59h-2.23l-.39,1.59h-1.97ZM132.74,53.91l-.7,2.84h1.47l-.76-2.84Z"/>
    <path class="cls-1" d="M137.6,52.07h3.13c2.15,0,2.96,1.1,2.96,2.59,0,1.06-.43,1.88-1.28,2.33l1.52,2.84h-2.27l-1.17-2.46h-.97v2.46h-1.92v-7.77ZM141.65,54.68c0-.69-.25-1.04-1.15-1.04h-.98v2.2h1.02c.67,0,1.11-.3,1.11-1.16Z"/>
    <path class="cls-1" d="M145.25,52.07h2.54c2.9,0,3.87,1.37,3.87,3.81,0,1.84-.56,3.95-3.86,3.95h-2.56v-7.77ZM147.17,53.64v4.61h.73c1.59,0,1.71-.97,1.71-2.28,0-1.52-.16-2.33-1.88-2.33h-.56Z"/>
    <path class="cls-1" d="M157.35,52.07h1.85v5.1c0,2.29-1.76,2.78-3.13,2.78s-3.02-.44-3.02-2.8v-5.09h1.92v4.73c0,1.29.45,1.59,1.18,1.59.87,0,1.19-.39,1.19-1.58v-4.74Z"/>
    <path class="cls-1" d="M160.92,58.25h2.01v-4.59h-2.01v-1.59h5.95v1.59h-2.02v4.59h2.02v1.59h-5.95v-1.59Z"/>
    <path class="cls-1" d="M170.28,59.84h-1.82v-7.77h2.09l2.52,4.66v-4.66h1.79v7.77h-1.95l-2.65-4.97v4.97Z"/>
    <path class="cls-1" d="M182.73,55.95c0,2.25-.82,4-3.32,4-2.23,0-3.26-1.35-3.26-3.92,0-2.34.9-4.07,3.25-4.07,2.21,0,3.33,1.03,3.33,3.99ZM180.68,55.95c0-1.9-.16-2.43-1.29-2.43-1.03,0-1.21.61-1.21,2.51,0,1.56.11,2.35,1.22,2.35s1.28-.64,1.28-2.44Z"/>
    <path class="cls-2" d="M136.11,67.36c0,2.27-.93,4-3.31,4-2.25,0-3.24-1.42-3.24-3.94,0-2.37.96-4.05,3.26-4.05s3.29,1.17,3.29,3.99ZM134.47,67.36c0-1.95-.29-2.71-1.65-2.71s-1.62.79-1.62,2.77c0,1.73.24,2.66,1.6,2.66s1.67-.88,1.67-2.72Z"/>
    <path class="cls-2" d="M137.89,63.48h2.93c2.08,0,2.85,1.09,2.85,2.6,0,1.62-1.04,2.69-2.91,2.69h-1.33v2.47h-1.54v-7.77ZM142.04,66.14c0-.81-.29-1.39-1.37-1.39h-1.23v2.74h1.28c.84,0,1.33-.35,1.33-1.35Z"/>
    <path class="cls-2" d="M151.15,63.48v1.28h-3.95v1.89h3.58v1.27h-3.58v2.04h3.94v1.29h-5.48v-7.77h5.5Z"/>
    <path class="cls-2" d="M154.52,71.24h-1.46v-7.77h1.68l3.02,5.28v-5.28h1.43v7.77h-1.56l-3.13-5.52v5.52Z"/>
    <path class="cls-2" d="M162.26,68.84v-1.25h3.27v1.25h-3.27Z"/>
    <path class="cls-2" d="M168.97,65.53c0-1.27,1.28-2.16,2.88-2.16.87,0,1.65.18,2.38.59l-.43,1.43c-.5-.44-1.15-.74-1.94-.74-.73,0-1.25.23-1.25.78,0,1.4,3.93.93,3.93,3.64,0,1.62-1.49,2.29-3.14,2.29-.85,0-1.79-.19-2.58-.7l.5-1.42c.61.54,1.36.86,2.23.86.75,0,1.34-.25,1.34-.87,0-1.65-3.92-1.05-3.92-3.69Z"/>
    <path class="cls-2" d="M182.7,67.36c0,2.27-.93,4-3.31,4-2.25,0-3.24-1.42-3.24-3.94,0-2.37.96-4.05,3.26-4.05s3.29,1.17,3.29,3.99ZM181.07,67.36c0-1.95-.29-2.71-1.65-2.71s-1.62.79-1.62,2.77c0,1.73.24,2.66,1.6,2.66s1.67-.88,1.67-2.72Z"/>
    <path class="cls-2" d="M188.68,63.48h1.49v5.01c0,2.09-1.33,2.88-3.02,2.88s-2.94-.68-2.94-2.84v-5.04h1.54v4.78c0,1.45.49,1.84,1.46,1.84,1.1,0,1.47-.5,1.47-1.86v-4.75Z"/>
    <path class="cls-2" d="M192.12,63.48h2.88c2.08,0,2.87.99,2.87,2.51,0,1.06-.47,1.85-1.34,2.27l1.64,2.99h-1.83l-1.36-2.69h-1.31v2.69h-1.54v-7.77ZM196.23,66.01c0-.87-.36-1.25-1.37-1.25h-1.19v2.54h1.23c.78,0,1.34-.32,1.34-1.29Z"/>
    <path class="cls-2" d="M205.71,70.75c-.79.42-1.55.61-2.44.61-2.23,0-3.51-1.33-3.51-3.99s1.46-4,3.71-4c.8,0,1.55.2,2.16.57l-.51,1.31c-.56-.44-1.11-.61-1.72-.61-1.31,0-2.01.9-2.01,2.69s.63,2.76,2.02,2.76c.75,0,1.42-.23,1.94-.57l.36,1.23Z"/>
    <path class="cls-2" d="M213.28,63.48v1.28h-3.95v1.89h3.58v1.27h-3.58v2.04h3.94v1.29h-5.48v-7.77h5.5Z"/>
    <path class="cls-4" d="M135.82,82.15c-.79.42-1.55.61-2.44.61-2.23,0-3.51-1.33-3.51-3.99s1.46-4,3.71-4c.8,0,1.55.2,2.16.57l-.51,1.31c-.56-.44-1.11-.61-1.72-.61-1.31,0-2.01.9-2.01,2.69s.63,2.76,2.02,2.76c.75,0,1.42-.23,1.94-.57l.36,1.23Z"/>
    <path class="cls-4" d="M143.88,78.76c0,2.27-.93,4-3.31,4-2.25,0-3.24-1.42-3.24-3.94,0-2.37.96-4.05,3.26-4.05s3.29,1.17,3.29,3.99ZM142.24,78.76c0-1.95-.29-2.71-1.65-2.71s-1.62.79-1.62,2.77c0,1.73.24,2.66,1.6,2.66s1.67-.88,1.67-2.72Z"/>
    <path class="cls-4" d="M150.28,77.28l-1.33,2.68h-1.1l-1.43-2.78v5.47h-1.24v-7.77h1.36l1.86,3.56,1.82-3.56h1.33v7.77h-1.27v-5.36Z"/>
    <path class="cls-4" d="M158.04,77.28l-1.33,2.68h-1.1l-1.43-2.78v5.47h-1.24v-7.77h1.36l1.86,3.56,1.82-3.56h1.33v7.77h-1.27v-5.36Z"/>
    <path class="cls-4" d="M165.38,74.88h1.49v5.01c0,2.09-1.33,2.88-3.02,2.88s-2.94-.68-2.94-2.84v-5.04h1.54v4.78c0,1.45.49,1.84,1.46,1.84,1.1,0,1.47-.5,1.47-1.86v-4.75Z"/>
    <path class="cls-4" d="M170.05,82.64h-1.46v-7.77h1.68l3.02,5.28v-5.28h1.43v7.77h-1.56l-3.13-5.52v5.52Z"/>
    <path class="cls-4" d="M176.59,81.35h2.07v-5.18h-2.07v-1.29h5.71v1.29h-2.1v5.18h2.1v1.29h-5.71v-1.29Z"/>
    <path class="cls-4" d="M190.41,76.16h-2.45v6.49h-1.54v-6.49h-2.45v-1.28h6.44v1.28Z"/>
    <path class="cls-4" d="M195.09,78.36l1.6-3.48h1.54l-2.44,4.71v3.06h-1.55v-3.02l-2.56-4.74h1.66l1.74,3.48Z"/>
  </g>
  <g>
    <path class="cls-5" d="M54.81,19.89l.36-.67c-3.36-1.79-6.81-2.96-10.29-3.46-1.44-.2-2.89-.31-4.31-.31-11.46,0-21.72,6.89-25.52,17.16l3.69,1.37c3.23-8.73,12-14.59,21.83-14.59,1.24,0,2.5.09,3.76.27,6.66.95,13.06,4.58,19.02,10.8l2.17-2.08c-2.93-3.14-6.51-6.21-10.72-8.48Z"/>
    <path class="cls-5" d="M27.91,65.84c-9.88-4.59-16.26-14.31-16.26-24.75,0-5.28,1.55-10.39,4.48-14.78,1.11-1.67,2.43-3.24,3.91-4.66l1.81,1.89c-1.34,1.28-2.53,2.7-3.54,4.22-2.64,3.96-4.03,8.56-4.03,13.33,0,9.57,5.65,18.14,14.75,22.37l-1.11,2.38Z"/>
    <path class="cls-5" d="M76.04,44.31l-1.14-2.65c-.1-.2-.25-.48-.42-.8-1.99,3.77-12.47,22.18-29.69,24.64-1.41.2-2.86.66-4.23.66-4.01,0-7.86-.85-11.44-2.51l-1.31,2.41c3.99,1.86,8.28,2.8,12.75,2.8,1.52,0,3.07-.11,4.62-.33,16.62-2.37,27.11-17.58,30.98-24.26l-.12.05Z"/>
    <path class="cls-4" d="M79.69,57.13c-3.37,4.58-7.09,8.54-11.08,11.78l.96,1.19c3.95-3.2,7.63-7.09,10.98-11.57,6.86,9.36,18.26,20.45,34.8,22.81l.39-2.74c-16.9-2.41-28.22-14.36-34.95-24.54-.32-.48-1.11,3.06-1.11,3.06Z"/>
    <path class="cls-3" d="M123.86,68.53c-2.18.14-4.4.06-6.63-.26-5.08-.73-10-2.75-14.63-6.03l-1.44,2.03c4.95,3.5,10.24,5.68,15.71,6.46,1.65.24,3.31.35,4.94.35.69,0,1.37-.03,2.05-.07v-2.5Z"/>
    <path class="cls-4" d="M77.36,43.75l-1.32.56-1.14-2.65c-.85-1.68-4.04-7.58-9.38-13.28l-2.17,2.08c4.68,4.88,7.49,9.71,8.48,11.56l3.99,6.97,3.41-1.96-1.88-3.28Z"/>
    <path class="cls-5" d="M121.81,66.31c-1.41,0-2.85-.1-4.26-.31-17.78-2.54-28.18-20.59-30.08-24.18l2.75-1.46c1.09,2.06,11.14,20.18,27.78,22.56,1.27.18,2.55.28,3.82.28v3.11Z"/>
    <path class="cls-1" d="M146.58,34.15c-1.18-3.85-3.4-7.4-6.39-10.27-3.93-3.76-8.92-6.16-14.43-6.95l.5-3.53c6.25.89,11.92,3.62,16.39,7.9,3.44,3.29,5.97,7.37,7.34,11.79l-3.41,1.05Z"/>
    <path class="cls-1" d="M98.99,22.82l-1.68-1.91c6.05-5.31,12.63-8.5,19.56-9.49,1.64-.23,3.3-.35,4.93-.35,8.44,0,16.35,3.12,22.26,8.78l-1.76,1.84c-5.44-5.21-12.72-8.07-20.5-8.07-1.51,0-3.05.11-4.57.33-6.43.92-12.57,3.91-18.24,8.89Z"/>
    <path class="cls-3" d="M86.06,47.61l-8.83-4.2,2.1-4.41c1.36-2.87,6.52-12.84,15.59-20.8l3.67-3.22,6.45,7.35-3.67,3.22c-7.87,6.91-12.39,15.92-13.21,17.65l-2.1,4.41Z"/>
    <path class="cls-1" d="M11.35,52.88c-1.63-3.72-2.46-7.69-2.46-11.79,0-8.12,3.28-15.73,9.24-21.43,2.08-1.99,4.43-3.69,6.98-5.05l1.43,2.7c-2.3,1.23-4.43,2.76-6.31,4.56-5.35,5.12-8.3,11.94-8.3,19.22,0,3.68.74,7.23,2.2,10.56l-2.8,1.23Z"/>
    <path class="cls-3" d="M21.86,23.57l-1.84-1.93c5.46-5.22,12.76-8.09,20.55-8.09,1.52,0,3.06.11,4.58.33,3.72.53,7.4,1.77,10.92,3.67l-1.27,2.35c-3.25-1.75-6.62-2.89-10.03-3.38-1.4-.2-2.81-.3-4.2-.3-7.11,0-13.75,2.61-18.71,7.35Z"/>
    <path class="cls-3" d="M3.6,41.09h-1.63c0-10.03,4.04-19.42,11.38-26.43l1.13,1.18c-7.01,6.71-10.87,15.68-10.87,25.26Z"/>
    <path class="cls-1" d="M68.05,13.25c-6.58-5.26-13.8-8.48-21.44-9.57-2-.29-4.03-.43-6.04-.43-7.92,0-15.53,2.23-21.99,6.44l-1.19-1.82c6.82-4.45,14.83-6.79,23.18-6.79,2.1,0,4.24.15,6.34.45,8.04,1.15,15.6,4.52,22.49,10.03l-1.36,1.7Z"/>
    <path class="cls-1" d="M83.33,27.35l-4.29-3.02C85.9,14.6,97.74,2.5,115.24,0l.74,5.19c-15.64,2.23-26.39,13.28-32.65,22.15Z"/>
    <path class="cls-5" d="M88.24,27.97l-3.03-2.29c6-7.94,16.22-17.84,30.86-19.92,1.9-.27,3.83-.41,5.74-.41,4.93,0,9.71.9,14.2,2.67l-1.4,3.54c-4.04-1.6-8.35-2.41-12.8-2.41-1.72,0-3.47.13-5.2.37-13.35,1.91-22.79,11.09-28.36,18.45Z"/>
    <path class="cls-5" d="M82.12,34.16l-4.24-1.73,1.26-3.1.11-.17c5.48-8.67,17.49-23.62,36.39-26.31,2.04-.29,4.11-.44,6.15-.44v4.58c-1.82,0-3.68.13-5.5.39-16.13,2.3-26.87,14.31-33.06,24.05l-1.11,2.72Z"/>
    <path class="cls-5" d="M82.05,29.47l-2.2-2.69c-3.65-5.17-7.73-9.58-12.14-13.1l2.03-2.55c4.64,3.71,8.92,8.32,12.74,13.72l2.09,2.56-2.52,2.06Z"/>
    <path class="cls-4" d="M149.47,14.19c-7.38-7.06-17.21-10.95-27.67-10.95-2,0-4.03.14-6.03.43l-.31-2.15c2.1-.3,4.24-.45,6.34-.45,11.03,0,21.39,4.1,29.17,11.55l-1.5,1.57Z"/>
    <path class="cls-1" d="M46.08,74.79l-.79-5.54c22.16-3.16,33.21-28.98,33.31-29.24.49-1.18,12.34-29.01,37.69-32.63l.79,5.54c-22.23,3.17-33.2,28.98-33.31,29.24-.49,1.18-12.35,29.01-37.69,32.63Z"/>
    <path class="cls-1" d="M22.79,69.19l2.43-4.18c5.96,3.47,12.88,4.76,19.99,3.74l.69,4.79c4.63-.66,9.16-2.25,13.46-4.71l-4.06-7.06c-3.4,1.95-6.95,3.2-10.55,3.72-1.4.2-2.81.3-4.19.3-7.05,0-13.65-2.59-18.56-7.3-2.38-2.28-4.24-4.92-5.52-7.84l-6.99,3.06c1.67,3.81,4.1,7.3,7.23,10.3l-.35.37c1.96,1.87,4.12,3.49,6.43,4.83Z"/>
    <path class="cls-1" d="M40.56,76.05c-9.71,0-18.83-3.61-25.67-10.15l1.54-1.61c6.43,6.15,14.99,9.53,24.13,9.53,1.76,0,3.55-.13,5.33-.38,18.28-2.61,29.32-18.08,34.3-27.1l1.26-2.99,2.05.87-1.33,3.14c-5.16,9.38-16.69,25.53-35.96,28.28-1.88.27-3.78.41-5.64.41Z"/>
    <path class="cls-1" d="M40.56,82.06c-11.27,0-21.86-4.2-29.83-11.82l2.82-2.94c7.2,6.89,16.79,10.69,27.01,10.69,1.96,0,3.95-.14,5.92-.42,7.62-1.09,14.79-4.33,21.33-9.64l2.57,3.16c-7.12,5.78-14.96,9.32-23.32,10.51-2.16.31-4.34.47-6.49.47Z"/>
    <path class="cls-3" d="M46.66,78.82l-.5-3.53c16.42-2.34,27.28-14.56,33.51-24.41.19-.33,1.87-3.24,2.51-4.46l3.15,1.66c-.71,1.35-2.52,4.48-2.6,4.62l-.04.06c-6.63,10.49-18.26,23.52-36.04,26.06Z"/>
    <path class="cls-5" d="M22.92,68.97c-10.22-5.94-16.32-16.36-16.32-27.88,0-1.68.13-3.36.39-5l2.51.4c-.24,1.51-.36,3.05-.36,4.6,0,10.6,5.63,20.2,15.06,25.68l-1.28,2.2Z"/>
    <path class="cls-4" d="M10.66,36.68l-4.83-.77c1.4-8.8,6.26-16.58,13.7-21.9,7.56-5.4,16.96-7.63,26.5-6.27,2.15.31,4.29.81,6.36,1.49l-1.53,4.64c-1.8-.59-3.66-1.03-5.52-1.29-16.91-2.41-32.15,8.18-34.68,24.1Z"/>
    <path class="cls-3" d="M10.03,70.98c-4.46-4.26-7.83-9.27-10.03-14.89l5.69-2.23c1.87,4.78,4.76,9.06,8.57,12.7l-4.22,4.41Z"/>
    <path class="cls-5" d="M40.56,79.26c-10.55,0-20.45-3.92-27.89-11.04-6.77-6.48-10.88-15.11-11.57-24.3v-.07s-.1-2.7-.1-2.7l3.56-.13.1,2.66c.63,8.3,4.35,16.09,10.47,21.96,6.77,6.48,15.8,10.05,25.43,10.05,1.85,0,3.73-.14,5.59-.4l.5,3.53c-2.03.29-4.08.44-6.09.44Z"/>
    <path class="cls-3" d="M56.92,66.81l-1.11-1.93.96-.55c12.57-7.22,19.6-21.02,20.88-23.71l.48-1,2.01.95-.48,1c-1.33,2.8-8.63,17.14-21.78,24.68l-.96.55Z"/>
    <path class="cls-1" d="M84.7,39.63c-.11-.27-.9-2.14-2.41-4.87l.57-.31c-5.24-9.52-16.96-25.9-36.54-28.69-1.9-.27-3.84-.41-5.74-.41v3.8c1.73,0,3.48.13,5.2.37,2.12.3,4.13.79,6.05,1.41l-1.39,4.23c18.07,5.94,27.15,27.18,27.24,27.39.5,1.2,12.56,29.54,38.47,33.24l1.07-7.53c-21.59-3.08-32.42-28.38-32.53-28.63Z"/>
    <path class="cls-3" d="M156.02,41.09h-3.05c0-8.41-3.71-16.45-10.18-22.07-6.95-6.03-16.38-8.71-25.88-7.36l-.43-3.02c10.37-1.48,20.69,1.46,28.31,8.07,7.14,6.19,11.23,15.08,11.23,24.37Z"/>
    <rect class="cls-3" x="36.71" y="28.28" width="8.26" height="25.63"/>
    <rect class="cls-1" x="28.03" y="36.96" width="25.62" height="8.26"/>
    <path class="cls-5" d="M163.59,44.82l-3.26-.3c.1-1.13.16-2.28.16-3.43,0-10.05-4.05-19.46-11.4-26.5l2.27-2.37c8,7.66,12.41,17.91,12.41,28.87,0,1.25-.06,2.51-.17,3.73Z"/>
    <path class="cls-1" d="M152.36,46.73l-2.13-.42c.34-1.72.52-3.49.52-5.26,0-7.4-2.99-14.34-8.43-19.54l1.5-1.57c5.87,5.62,9.1,13.11,9.1,21.11,0,1.91-.19,3.82-.56,5.69Z"/>
    <path class="cls-4" d="M148.63,47.25l-4.93-1.26c.41-1.59.61-3.24.61-4.91,0-11.65-10.1-21.12-22.51-21.12-1.21,0-2.44.09-3.67.26-.33.05-.65.1-.97.16l-.92-5.01c.39-.07.78-.14,1.17-.19,1.47-.21,2.94-.31,4.39-.31,15.22,0,27.6,11.76,27.6,26.21,0,2.09-.26,4.16-.77,6.16Z"/>
    <path class="cls-1" d="M107.85,21.12l-.59-1.06c-11.69,6.48-18.53,19.16-19.78,21.64l-1.24,2.52-1.31-.64-.54,1.2,4.64,2.08,2.08-4.64c1.22-2.27,10.73-19.01,26.03-21.83l-.46-2.5c-3,.55-5.97,1.64-8.84,3.23Z"/>
    <path class="cls-5" d="M121.81,77.23c-1.92,0-3.87-.14-5.81-.42-8.64-1.23-16.66-5.25-23.83-11.93l3.12-3.35c6.47,6.03,13.66,9.65,21.35,10.75,2.06.29,4.12.41,6.15.36l.11,4.58c-.37,0-.73.01-1.1.01Z"/>
  </g>
</svg>